<svg id="Layer_1" data-name="Layer 1" xmlns="http://www.w3.org/2000/svg" viewBox="0 0 218.78 125.89"><defs><style>.cls-1,.cls-2,.cls-3{fill:none;stroke:#231f20;stroke-width:3px;}.cls-1,.cls-2,.cls-3,.cls-4{stroke-miterlimit:10;}.cls-2,.cls-3{stroke-linecap:square;}.cls-3{stroke-dasharray:8.18 10.23;}.cls-4{stroke:#fff;stroke-width:4px;}.cls-5{fill:#231f20;}</style></defs><line class="cls-1" x1="50.58" y1="16.05" x2="17.34" y2="63"/><line class="cls-2" x1="77.13" y1="25.5" x2="74.82" y2="28.76"/><line class="cls-3" x1="68.91" y1="37.11" x2="29.3" y2="93.05"/><line class="cls-2" x1="26.35" y1="97.23" x2="24.03" y2="100.49"/><line class="cls-1" x1="83.82" y1="63" x2="50.58" y2="109.94"/><line class="cls-1" x1="17.34" y1="63" x2="50.58" y2="109.94"/><line class="cls-1" x1="83.82" y1="63" x2="50.58" y2="16.05"/><circle class="cls-4" cx="17.34" cy="63" r="8.38"/><circle class="cls-4" cx="50.58" cy="109.94" r="8.38"/><circle class="cls-4" cx="83.82" cy="63" r="8.38"/><circle class="cls-4" cx="50.58" cy="16.05" r="8.38"/><path class="cls-5" d="M142.46,19V76.53h-6.18V37.36L123.22,58.53h0L110.09,37.34V59.19h-6.18V19h.46L123.2,47.59,142,19Z"/><path class="cls-5" d="M159.77,37.34a14,14,0,0,1,10.08-4,9.68,9.68,0,0,1,3.85.72,7.74,7.74,0,0,1,2.82,2,8.42,8.42,0,0,1,1.74,3.05,12.56,12.56,0,0,1,.59,3.93v16.2h-2.18a2.06,2.06,0,0,1-1.1-.24,1.63,1.63,0,0,1-.6-.89l-.52-2.22a20.5,20.5,0,0,1-1.93,1.59,12.4,12.4,0,0,1-2,1.17,10,10,0,0,1-2.22.74,12.27,12.27,0,0,1-2.6.25,9.5,9.5,0,0,1-2.81-.41,6.41,6.41,0,0,1-2.29-1.27,5.81,5.81,0,0,1-1.53-2.12,7.23,7.23,0,0,1-.57-3,5.62,5.62,0,0,1,.82-2.88A7.21,7.21,0,0,1,162,47.44a17.12,17.12,0,0,1,4.8-1.8,35.79,35.79,0,0,1,7.28-.8V43a6.43,6.43,0,0,0-1.22-4.3,4.5,4.5,0,0,0-3.6-1.43,8,8,0,0,0-2.69.4,10.89,10.89,0,0,0-1.87.89c-.53.33-1,.62-1.38.89a2.08,2.08,0,0,1-1.21.4,1.35,1.35,0,0,1-.86-.28,2.28,2.28,0,0,1-.59-.65Zm14.3,10.57a36.44,36.44,0,0,0-5,.47,13.87,13.87,0,0,0-3.37,1,4.64,4.64,0,0,0-1.88,1.41,3.09,3.09,0,0,0-.57,1.81,3.9,3.9,0,0,0,.31,1.64,3.12,3.12,0,0,0,.85,1.13,3.4,3.4,0,0,0,1.26.63,5.7,5.7,0,0,0,1.58.2,8.8,8.8,0,0,0,2.06-.22A7.85,7.85,0,0,0,171,55.3a8.61,8.61,0,0,0,1.58-1,13.4,13.4,0,0,0,1.47-1.38Z"/><path class="cls-5" d="M201.07,33.79v27c0,1.05-.14,28.79-.41,29.7a6.36,6.36,0,0,1-1.3,2.37,6,6,0,0,1-2.3,1.59c-.95.38-22.59.57-23.92.57a8.93,8.93,0,0,1-1.52-.12,10.34,10.34,0,0,1-1.38-.35l.2-2.65c.06-.32.21-.49.43-.53a11.57,11.57,0,0,1,1.29-.05c1.29,0,22.7-.29,23.23-.87s.8-28.31.8-29.66v-27Zm.92-7.85a3.17,3.17,0,0,1-.27,1.29A3.45,3.45,0,0,1,201,28.3a3.66,3.66,0,0,1-1.09.73,3.37,3.37,0,0,1-1.31.26,3.25,3.25,0,0,1-1.28-.26,3.52,3.52,0,0,1-1.06-.73,3.36,3.36,0,0,1-.72-1.07,3.26,3.26,0,0,1,0-2.6,3.36,3.36,0,0,1,1.78-1.8,3.09,3.09,0,0,1,1.28-.27,3.2,3.2,0,0,1,1.31.27,3.45,3.45,0,0,1,1.09.72,3.38,3.38,0,0,1,.75,1.08A3.17,3.17,0,0,1,202,25.94Z"/><path class="cls-5" d="M167.77,87.39c0,12.08-7.78,19.62-20.28,19.62H136.28V67.66h11.21C160,67.63,167.77,75.2,167.77,87.39Zm-6.25,0c0-8.35-5.42-13.57-14.06-13.57h-5v27.07h5.11C156.13,100.86,161.52,95.66,161.52,87.36Z"/><path class="cls-5" d="M197.29,107H204L185.47,66.85h-.36L166.6,107h6.69l12-26.66m0,0"/></svg>